<svg width="53" height="51" viewBox="0 0 53 51" fill="none" xmlns="http://www.w3.org/2000/svg">
<path fill-rule="evenodd" clip-rule="evenodd" d="M6.99258 33.7775C6.71504 32.4844 5.37166 31.895 4.171 31.7488C3.0827 31.6163 1.7794 31.9811 1.10832 32.8902C0.929771 33.131 0.825921 33.4085 0.782194 33.7035C0.617612 34.8226 1.32817 36.1964 2.14804 36.8382C3.0748 37.5642 4.25663 37.5142 5.30546 37.0639C6.53527 36.5348 7.27073 35.0755 6.99258 33.7775Z" fill="black"/>
<path fill-rule="evenodd" clip-rule="evenodd" d="M15.7773 40.6412C15.17 40.9434 14.6763 41.918 14.5086 42.4809C14.2062 43.4971 14.6459 45.0666 15.7488 45.4561C16.9476 45.8799 17.5895 44.9606 17.6867 43.8758C17.7723 42.9198 17.4766 41.5641 16.7757 40.8555C16.432 40.5087 16.0895 40.4865 15.7773 40.6412Z" fill="black"/>
<path fill-rule="evenodd" clip-rule="evenodd" d="M40.228 29.2775C41.063 29.1962 41.9667 28.956 42.7441 28.6465C43.2742 28.4352 43.7814 28.1463 44.2417 27.7941C46.2671 26.2451 47.2339 23.3091 45.4077 21.2027C44.7288 20.4194 43.5348 19.8331 42.5224 19.6747C40.5462 19.3671 38.556 20.0998 36.5695 19.7771C35.743 19.6428 34.8065 19.3208 34.4038 18.5285C33.8828 17.5033 34.5077 16.1505 34.7937 15.1392C35.5322 12.5264 34.7974 10.1647 32.4143 8.73916C30.7357 7.735 28.3076 7.71092 26.431 8.06069C25.0506 8.31715 24.1214 9.12264 23.3963 10.2755C22.7956 11.2291 22.3566 12.8906 21.0162 13.0237C20.0609 13.1188 19.2514 12.4397 18.4576 12.0243C17.5746 11.5626 16.5774 11.388 15.6087 11.7179C13.5614 12.4151 13.8007 14.5317 13.7898 16.2643C13.7843 17.124 13.7005 18.3503 12.5752 18.3961C11.4109 18.4436 10.3633 17.3449 9.50763 16.7068C8.24988 15.7689 6.70609 15.6268 5.19631 16.0669C3.32275 16.6129 2.50166 18.5761 2.65409 20.3863C2.82475 22.4109 4.16205 23.8852 5.66758 25.1302C6.86581 26.1211 8.37377 26.9519 9.30721 28.2203C10.0979 29.2955 9.85258 30.7771 9.78456 32.0178C9.72444 33.1147 9.79063 34.288 10.2734 35.2958C10.6548 36.0917 11.4456 36.8363 12.2029 37.2716C15.418 39.121 20.3828 38.9675 23.44 36.9026C24.6042 36.1151 25.7854 35.1314 27.2576 35.7557C28.259 36.1802 28.986 37.0049 29.7998 37.69C30.6561 38.4112 31.6509 38.9073 32.775 39.0566C34.0109 39.2203 35.4059 38.9566 36.4007 38.1873C37.4082 37.4077 37.7878 36.0688 37.3535 34.8804C36.9151 33.6818 35.3889 32.9841 35.3755 31.582C35.3543 29.4069 38.7589 29.4213 40.228 29.2775Z" fill="black"/>
<path fill-rule="evenodd" clip-rule="evenodd" d="M1.06889 27.6346C1.83229 27.9982 3.85221 27.9832 3.11858 26.6058C3.1125 26.5943 3.10643 26.5841 3.10036 26.5727C2.78637 26.017 2.12926 25.5553 1.48004 25.7064C0.945608 25.831 0.453684 26.2771 0.503484 26.8671C0.534457 27.2319 0.747016 27.4811 1.06889 27.6346Z" fill="black"/>
<path fill-rule="evenodd" clip-rule="evenodd" d="M43.0153 15.5161C44.5087 14.4276 43.3803 12.6047 41.7533 12.8239C40.4804 12.9955 39.5136 14.117 40.4901 15.2572C41.2584 16.1542 42.3096 16.0314 43.0153 15.5161Z" fill="black"/>
<path fill-rule="evenodd" clip-rule="evenodd" d="M18.4497 8.23594C18.4564 8.23474 18.4625 8.23353 18.4692 8.23233C19.586 8.00718 19.0795 6.36007 18.2147 6.17224C16.9685 5.90193 16.841 8.53213 18.4497 8.23594Z" fill="black"/>
<path fill-rule="evenodd" clip-rule="evenodd" d="M10.765 40.7843C9.96762 40.7633 9.10038 41.0709 8.55015 41.4622C6.81809 42.6939 5.72007 44.9479 5.61986 47.0387C5.55002 48.4998 6.36564 50.1649 7.90215 50.5358C9.86681 51.0096 11.3711 48.823 11.9973 47.2963C12.7151 45.5463 13.6091 43.0895 12.2183 41.4116C11.8606 40.9794 11.3298 40.7994 10.765 40.7843Z" fill="black"/>
<path fill-rule="evenodd" clip-rule="evenodd" d="M25.2297 39.4353C25.1635 39.3974 25.0961 39.3667 25.0299 39.3444C24.2786 39.0898 23.5893 39.8375 23.4806 40.5689C23.3185 41.6537 24.9285 42.8271 25.7204 41.7615C26.1862 41.1348 25.8789 39.811 25.2297 39.4353Z" fill="black"/>
<path fill-rule="evenodd" clip-rule="evenodd" d="M51.9293 35.4361C51.6402 34.6499 50.937 34.1213 50.2179 33.7408C48.2982 32.7228 45.5957 32.0726 43.4379 32.6078C42.168 32.9221 41.1216 33.8889 41.6761 35.217C42.4844 37.1536 44.9276 38.6719 46.8407 39.3432C48.3741 39.8814 50.2094 39.7026 51.3919 38.5058C51.7156 38.1777 51.9281 37.7514 52.0362 37.2939C52.1808 36.6793 52.1389 36.0068 51.9293 35.4361Z" fill="black"/>
<path fill-rule="evenodd" clip-rule="evenodd" d="M12.145 9.13172C13.3219 9.92577 14.6441 9.49774 15.0315 8.12214C15.2228 7.44186 15.2623 6.71162 15.2034 5.97355C15.105 4.7316 14.7297 3.46737 14.3368 2.37953C13.7623 0.7872 12.1832 -0.278364 10.4542 0.0641816C9.6726 0.218899 9.13817 0.810679 8.8831 1.53671C8.36202 3.01465 8.91953 4.57206 9.60883 5.89409C10.2404 7.10233 10.9874 8.3503 12.145 9.13172Z" fill="black"/>
</svg>
