<svg width="362" height="360" viewBox="0 0 362 360" fill="none" xmlns="http://www.w3.org/2000/svg">
<path fill-rule="evenodd" clip-rule="evenodd" d="M133.642 281.775C136.983 295.729 146.892 305.805 159.365 312.072C173.34 319.094 190.512 321.251 204.579 318.962C209.418 317.946 214.067 316.459 218.556 314.504C225.031 311.686 231.135 308.029 237.083 303.944C237.672 303.59 237.842 302.83 237.463 302.249C237.084 301.668 236.299 301.483 235.707 301.835C230.529 304.518 225.278 306.876 219.874 308.76C214.512 310.632 209.038 311.964 203.35 312.532C190.624 314.424 175.184 312.23 162.629 305.791C152.309 300.498 143.933 292.258 141.024 280.765C144.133 280.193 147.175 279.406 150.085 278.312C155.722 276.194 160.889 272.954 165.201 267.961C168.227 264.46 171.474 258.772 172.067 253.556C172.594 248.921 171.22 244.63 166.919 241.744C158.346 235.991 150.185 238.718 143.846 245.484C136.702 253.11 132.185 266.125 132.556 274.579C129.479 274.871 126.378 275.02 123.323 275.146C110.691 275.664 98.0096 271.561 87.4237 263.779C77.6028 256.562 69.5845 246.185 65.0303 233.373C61.205 223.106 61.257 212.247 62.8419 202.464C63.944 195.657 65.8934 189.423 67.9682 184.121C69.8545 179.301 71.6446 175.284 73.7453 172.575C73.8493 172.474 73.8457 172.308 73.738 172.204C73.6303 172.1 73.4596 172.1 73.3556 172.201C70.4645 174.372 67.1641 177.7 64.2682 182.289C61.0175 187.439 58.3878 194.003 56.6987 201.165C54.1748 211.872 54.2228 224.009 58.1028 235.53C63.1584 249.825 72.1105 261.391 83.0487 269.457C95.0614 278.316 109.474 282.951 123.826 282.385C127.077 282.258 130.372 282.09 133.642 281.775ZM140.005 273.527C142.475 273.036 144.89 272.384 147.213 271.507C151.743 269.797 155.908 267.203 159.37 263.181C161.262 260.982 163.318 257.669 164.205 254.353C164.874 251.853 165.017 249.271 162.73 247.734C157.762 244.389 153.152 246.552 149.469 250.474C143.806 256.498 140.02 266.588 140.005 273.527Z" fill="black"/>
<path fill-rule="evenodd" clip-rule="evenodd" d="M234.681 301.75C233.174 303.568 231.642 305.375 230.136 307.209C228.37 309.364 226.598 311.516 224.924 313.746C220.648 319.449 216.804 325.288 212.846 331.096C212.413 331.596 212.492 332.353 213.016 332.786C213.542 333.219 214.321 333.165 214.754 332.665C219.145 328.664 223.66 324.869 228.067 320.773C229.939 319.03 231.785 317.28 233.531 315.418C237.441 311.254 240.957 306.769 244.425 302.32C244.84 301.771 245.427 300.771 245.629 299.862C245.858 298.844 245.773 297.87 245.42 297.055C245.089 296.286 244.461 295.316 243.039 294.739C242.399 294.479 240.982 294.179 239.004 294.174C232.481 294.159 216.611 296.044 213.323 296.363L206.929 297.408C206.565 297.494 206.028 297.548 205.534 297.846C204.872 298.242 204.136 298.69 203.853 299.173C203.638 299.54 204.189 299.749 203.891 299.687C203.663 299.641 203.969 300.046 204.014 299.899C204.18 299.348 204.326 300.313 204.533 300.11C205.043 299.603 204.556 300.678 205.119 300.626C205.323 300.609 205.011 300.835 205.221 300.863C205.516 300.903 204.947 301.09 205.256 301.253C205.445 301.352 204.959 301.353 205.168 301.535C205.324 301.672 204.748 301.431 204.951 301.688C205.136 301.924 204.721 301.554 204.721 301.554C204.721 301.554 204.808 301.813 204.457 301.2C204.566 301.104 204.57 300.938 204.469 300.83C204.366 300.721 204.194 300.712 204.087 300.81C202.571 299.845 203.871 300.76 203.193 300.659C202.953 300.623 203.237 300.85 203.059 300.878C202.176 301.021 203.491 301.249 203.141 301.745C203 301.945 203.416 301.763 203.333 302.002C203.188 302.42 203.761 301.741 203.911 302.356C203.99 302.675 204.121 302.017 204.514 302.545C204.804 302.935 204.426 302.72 205.279 303.041C205.886 303.269 207.142 302.927 207.714 303.015L214.022 302.87C216.629 302.73 227.36 301.926 234.681 301.75Z" fill="black"/>
<path d="M83.4142 187.006C82.8493 187.118 81.9806 186.703 80.8083 185.762C79.683 184.811 79.0242 183.865 78.8319 182.924C78.6396 181.984 78.6869 175.149 78.974 162.418C79.2985 149.632 79.1862 141.776 78.6371 138.851C78.4736 138.052 78.4572 137.493 78.5878 137.173C78.7559 136.797 79.1695 136.544 79.8286 136.413C80.5348 136.273 81.5783 136.824 82.9592 138.067C84.3872 139.3 85.2742 140.763 85.6204 142.456C85.957 144.102 85.8392 152.15 85.2671 166.6C85.1971 167.935 85.1249 169.858 85.0504 172.368C84.9663 174.832 84.8892 176.731 84.8193 178.066C84.7494 179.401 84.68 180.858 84.6111 182.438C84.3781 185.371 83.9791 186.894 83.4142 187.006ZM105.585 175.558C105.768 176.451 106.377 176.795 107.413 176.59C109.202 176.234 111.267 175.311 113.607 173.818C115.985 172.27 117.315 171.468 117.597 171.412C118.445 171.243 118.96 171.606 119.142 172.499C119.421 173.863 118.331 175.719 115.872 178.066C113.459 180.405 111.1 181.803 108.793 182.261C106.533 182.709 104.525 182.472 102.769 181.548C101.003 180.578 99.9849 179.434 99.7156 178.118C99.4464 176.801 99.3875 175.076 99.539 172.942C99.6808 170.76 99.9282 167.898 100.281 164.354C100.672 160.753 100.947 157.787 101.107 155.455C99 156.412 97.57 156.965 96.8167 157.115C96.0635 157.264 95.2333 157.037 94.3262 156.435C93.4565 155.775 92.9496 155.093 92.8054 154.388C92.5746 153.259 95.4135 151.57 101.322 149.321C101.371 145.25 101.088 141.709 100.473 138.7C100.184 137.289 100.511 136.49 101.452 136.304C102.253 136.145 103.347 136.466 104.736 137.266C106.115 138.02 106.934 139.032 107.194 140.302C107.453 141.571 107.51 143.884 107.363 147.241C109.999 146.473 112.117 145.93 113.717 145.612C116.542 145.051 118.079 145.382 118.329 146.605C118.474 147.31 117.817 148.052 116.36 148.831C114.949 149.6 111.897 150.964 107.203 152.924C106.974 156.835 106.597 161.338 106.071 166.434C105.536 171.482 105.374 174.523 105.585 175.558ZM139.47 139.765C141.07 139.447 142.76 140.042 144.537 141.548C146.306 143.008 147.324 144.396 147.593 145.712C147.757 146.512 147.462 146.986 146.709 147.136C146.191 147.239 145.309 146.998 144.063 146.413C142.807 145.782 141.614 145.578 140.484 145.803C139.354 146.027 137.7 147.04 135.521 148.843C133.389 150.636 132.472 152.262 132.77 153.72C132.992 154.801 135.537 156.229 140.407 158.002C142.266 158.709 144.023 159.755 145.678 161.139C147.37 162.467 148.408 164.071 148.793 165.952C149.168 167.786 148.244 169.853 146.02 172.154C143.833 174.399 141.022 175.862 137.585 176.544C134.195 177.217 131.014 176.993 128.041 175.87C125.115 174.739 123.503 173.444 123.205 171.986C123.08 171.375 123.125 170.877 123.341 170.491C123.593 170.05 123.955 169.782 124.426 169.689C124.896 169.595 125.618 169.77 126.59 170.213C129.508 171.542 132.332 171.936 135.062 171.394C137.84 170.842 139.778 170.139 140.877 169.285C141.966 168.384 142.405 167.416 142.194 166.381C141.973 165.3 141.059 164.307 139.454 163.402C137.838 162.451 136.111 161.668 134.271 161.055C132.478 160.432 130.759 159.575 129.115 158.482C127.471 157.39 126.504 156.138 126.216 154.727C125.706 152.235 127.131 149.261 130.491 145.805C133.887 142.293 136.88 140.279 139.47 139.765ZM223.373 123.107C224.786 122.827 226.235 123.567 227.722 125.327C229.246 127.03 230.263 129.128 230.773 131.62C231.273 134.066 231.479 137.352 231.393 141.479C231.353 145.597 230.94 149.447 230.154 153.028C229.367 156.61 228.268 158.541 226.856 158.821C225.867 159.017 225.243 158.481 224.983 157.211C224.714 155.894 224.865 152.561 225.437 147.212C226.046 141.807 226.048 137.623 225.442 134.66C224.827 131.651 224.048 130.24 223.107 130.427C221.93 130.66 220.776 131.966 219.645 134.343C218.562 136.711 217.448 139.526 216.302 142.787C215.156 146.048 214.537 147.811 214.444 148.074C214.341 148.29 214.21 148.609 214.052 149.032C213.94 149.446 213.787 149.892 213.591 150.372C213.442 150.842 213.042 152.242 212.392 154.573C211.789 156.895 211.213 158.746 210.662 160.128C210.102 161.462 209.517 162.19 208.904 162.312C208.34 162.424 207.627 162.174 206.767 161.562C205.907 160.949 205.41 160.314 205.275 159.656C205.14 158.998 205.285 157.55 205.71 155.313C206.908 148.714 206.968 142.781 205.891 137.514C205.689 136.527 205.309 135.746 204.751 135.172C204.183 134.551 203.64 134.292 203.122 134.394C202.604 134.497 202.111 134.84 201.642 135.422C201.164 135.957 200.621 136.897 200.014 138.241C199.397 139.538 198.865 140.769 198.418 141.934C197.97 143.099 197.29 144.923 196.376 147.404C195.501 149.828 194.82 151.652 194.335 152.873C193.888 154.039 193.361 155.416 192.755 157.004C192.139 158.545 191.649 159.743 191.285 160.598C190.968 161.444 190.595 162.375 190.166 163.389C189.251 165.382 188.487 166.439 187.875 166.56C187.31 166.672 186.451 166.304 185.298 165.457C184.135 164.562 183.501 163.856 183.395 163.339C183.28 162.775 183.234 162.074 183.259 161.238C183.284 160.401 183.314 159.588 183.348 158.798C183.43 157.999 183.533 156.828 183.659 155.287C183.822 153.688 183.984 151.846 184.145 149.759C184.344 147.615 184.228 144.776 183.799 141.24C183.408 137.648 183.119 135.038 182.933 133.412C182.738 131.738 182.97 130.835 183.629 130.705C184.665 130.499 185.787 130.839 186.997 131.724C188.254 132.6 188.993 133.578 189.214 134.66C190.06 138.798 189.901 145.925 188.737 156.04C191.99 145.119 194.112 138.605 195.102 136.5C196.092 134.395 196.966 132.681 197.724 131.356C199.147 128.969 200.8 127.589 202.683 127.215C203.813 126.991 205.356 127.712 207.314 129.378C209.309 130.989 210.508 132.781 210.912 134.756C211.316 136.731 211.533 139.232 211.564 142.26C214.918 130.389 218.854 124.005 223.373 123.107ZM264.459 127.134C264.969 129.626 264.022 131.943 261.618 134.084C259.252 136.168 256.35 137.552 252.914 138.234C249.524 138.907 246.364 139.143 243.432 138.942C243.196 141.142 243.246 143.065 243.583 144.711C243.91 146.309 244.659 147.457 245.83 148.154C247.049 148.842 248.811 148.957 251.118 148.499C253.472 148.032 255.791 147.155 258.076 145.87C260.398 144.528 261.677 143.834 261.912 143.787C263.136 143.544 263.844 143.893 264.037 144.833C264.296 146.103 263.144 147.775 260.58 149.85C258.006 151.878 255.354 153.163 252.624 153.705C248.952 154.434 245.741 153.946 242.992 152.241C240.233 150.489 238.512 147.944 237.83 144.605C237.147 141.267 237.33 137.609 238.378 133.633C239.417 129.61 241.094 126.073 243.409 123.02C245.724 119.967 248.271 118.164 251.048 117.613C253.826 117.061 256.614 117.878 259.412 120.063C262.257 122.238 263.94 124.595 264.459 127.134ZM252.541 123.115C250.799 123.461 249.174 124.738 247.666 126.945C246.148 129.106 245.004 131.657 244.234 134.599C246.204 134.649 248.389 134.435 250.79 133.958C253.191 133.482 255.209 132.69 256.844 131.582C258.47 130.427 259.153 129.215 258.893 127.946C258.633 126.676 257.781 125.5 256.334 124.417C254.935 123.325 253.671 122.891 252.541 123.115Z" fill="black"/>
</svg>
